<?xml version="1.0" ?><svg fill="#f1f1f1" style="enable-background:new 0 0 24 24;" version="1.1"  viewBox="0 0 24 24" xml:space="preserve" xmlns="http://www.w3.org/2000/svg" xmlns:xlink="http://www.w3.org/1999/xlink"><style type="text/css">
	.st0{opacity:0.2;fill:none;stroke:#f1f1f1;stroke-width:5.000000e-02;stroke-miterlimit:10;}
</style><g id="grid_system"/><g id="_icons"><g><path d="M15,2H9C6.8,2,5,3.8,5,6v12c0,2.2,1.8,4,4,4h6c2.2,0,4-1.8,4-4V6C19,3.8,17.2,2,15,2z M17,18c0,1.1-0.9,2-2,2H9    c-1.1,0-2-0.9-2-2V6c0-1.1,0.9-2,2-2h6c1.1,0,2,0.9,2,2V18z"/><path d="M13,5h-2c-0.6,0-1,0.4-1,1s0.4,1,1,1h2c0.6,0,1-0.4,1-1S13.6,5,13,5z"/></g></g></svg>